<svg width="665" height="308" viewBox="0 0 665 308" fill="none" xmlns="http://www.w3.org/2000/svg">
<path d="M305.044 200.5V186.1H306.684V192.48H311.324L316.684 186.1H318.764V186.12L312.744 193.3L318.784 200.48V200.5H316.684L311.324 194.12H306.684V200.5H305.044ZM320.922 200.5V188.9H336.242C336.695 188.9 337.102 189.013 337.462 189.24C337.835 189.453 338.128 189.747 338.342 190.12C338.555 190.48 338.662 190.88 338.662 191.32V200.5H337.042V191.32C337.042 191.107 336.962 190.927 336.802 190.78C336.642 190.62 336.455 190.54 336.242 190.54H331.422C331.208 190.54 331.022 190.62 330.862 190.78C330.715 190.927 330.642 191.107 330.642 191.32V200.5H328.982V191.32C328.982 191.107 328.902 190.927 328.742 190.78C328.595 190.62 328.415 190.54 328.202 190.54H323.362C323.148 190.54 322.962 190.62 322.802 190.78C322.655 190.927 322.582 191.107 322.582 191.32V200.5H320.922ZM339.512 200.5V198.38L349.492 186.26L349.632 186.1V188.18L339.672 200.3L339.512 200.5ZM350.962 200.5V186.1H352.582V192.48H364.082V186.1H365.722V200.5H364.082V194.12H352.582V200.5H350.962Z" fill="white"/>
<path d="M334.369 109.5C369.416 109.5 397.869 137.236 397.869 171.5C397.869 205.764 369.416 233.5 334.369 233.5C299.322 233.5 270.869 205.764 270.869 171.5C270.869 137.236 299.322 109.5 334.369 109.5Z" stroke="url(#paint0_linear_18_158)" stroke-width="2"/>
<path d="M462.869 295.755C491.435 264.611 508.869 223.092 508.869 177.5C508.869 80.8502 430.519 2.5 333.869 2.5C237.219 2.5 158.869 80.8502 158.869 177.5C158.869 222.724 176.023 263.941 204.18 295" stroke="url(#paint1_linear_18_158)" stroke-width="5" stroke-linecap="round"/>
<path d="M462.869 295.755C491.435 264.611 508.869 223.092 508.869 177.5C508.869 80.8502 430.519 2.5 333.869 2.5C237.219 2.5 158.869 80.8502 158.869 177.5C158.869 222.724 176.023 263.941 204.18 295" stroke="url(#paint2_linear_18_158)" stroke-opacity="0.29" stroke-width="5" stroke-linecap="round"/>
<path opacity="0.55" d="M195.044 268.5C178.48 242.597 168.869 211.758 168.869 178.658C168.869 86.8917 242.742 12.5 333.869 12.5C424.996 12.5 498.869 86.8917 498.869 178.658C498.869 211.758 489.258 242.597 472.694 268.5" stroke="url(#paint3_linear_18_158)" stroke-width="13" stroke-miterlimit="3.99933" stroke-dasharray="4 40"/>
<path d="M203.91 261.815L190.531 272.9L188.621 270.067L203.91 261.815Z" fill="#D9D9D9"/>
<path d="M463.798 261.815L477.177 272.9L479.087 270.067L463.798 261.815Z" fill="#D9D9D9"/>
<path d="M203.24 256.5C202.991 256.5 202.763 256.441 202.558 256.324C202.36 256.199 202.202 256.038 202.085 255.84C201.968 255.635 201.909 255.411 201.909 255.169V249.922C201.909 249.673 201.968 249.449 202.085 249.251C202.202 249.046 202.36 248.884 202.558 248.767C202.763 248.642 202.991 248.58 203.24 248.58H208.575C208.817 248.58 209.037 248.642 209.235 248.767C209.44 248.884 209.602 249.046 209.719 249.251C209.844 249.449 209.906 249.673 209.906 249.922V255.169C209.906 255.411 209.844 255.635 209.719 255.84C209.602 256.038 209.44 256.199 209.235 256.324C209.037 256.441 208.817 256.5 208.575 256.5H203.24ZM202.921 255.598H208.575C208.692 255.598 208.791 255.558 208.872 255.477C208.96 255.389 209.004 255.286 209.004 255.169V250.582L202.921 255.598ZM202.811 254.509L208.883 249.493H203.24C203.123 249.493 203.02 249.537 202.932 249.625C202.851 249.706 202.811 249.805 202.811 249.922V254.509Z" fill="white"/>
<path d="M439.098 256.5C438.848 256.5 438.621 256.441 438.416 256.324C438.218 256.199 438.056 256.038 437.932 255.84C437.814 255.635 437.756 255.411 437.756 255.169V254.993H438.669V255.169C438.669 255.286 438.709 255.389 438.79 255.477C438.878 255.558 438.98 255.598 439.098 255.598H444.433C444.55 255.598 444.649 255.558 444.73 255.477C444.818 255.389 444.862 255.286 444.862 255.169V253.332C444.862 253.215 444.818 253.116 444.73 253.035C444.649 252.947 444.55 252.903 444.433 252.903H439.274V252.001H444.081C444.198 252.001 444.297 251.961 444.378 251.88C444.466 251.792 444.51 251.689 444.51 251.572V249.911C444.51 249.794 444.466 249.695 444.378 249.614C444.297 249.526 444.198 249.482 444.081 249.482H439.098C438.98 249.482 438.878 249.526 438.79 249.614C438.709 249.695 438.669 249.794 438.669 249.911V250.197H437.756V249.911C437.756 249.662 437.814 249.438 437.932 249.24C438.056 249.035 438.218 248.873 438.416 248.756C438.621 248.631 438.848 248.569 439.098 248.569H444.081C444.33 248.569 444.554 248.631 444.752 248.756C444.957 248.873 445.118 249.035 445.236 249.24C445.353 249.438 445.412 249.662 445.412 249.911V251.572C445.412 251.675 445.397 251.777 445.368 251.88C445.346 251.975 445.316 252.063 445.28 252.144C445.463 252.32 445.588 252.514 445.654 252.727C445.727 252.94 445.764 253.141 445.764 253.332V255.169C445.764 255.411 445.701 255.635 445.577 255.84C445.459 256.038 445.298 256.199 445.093 256.324C444.895 256.441 444.675 256.5 444.433 256.5H439.098ZM446.888 256.5V253.53C446.888 253.281 446.946 253.057 447.064 252.859C447.181 252.654 447.339 252.492 447.537 252.375C447.742 252.258 447.969 252.199 448.219 252.199H453.554C453.671 252.199 453.77 252.159 453.851 252.078C453.939 251.99 453.983 251.887 453.983 251.77V249.911C453.983 249.794 453.939 249.695 453.851 249.614C453.77 249.526 453.671 249.482 453.554 249.482H448.219C448.101 249.482 447.999 249.526 447.911 249.614C447.83 249.695 447.79 249.794 447.79 249.911V250.219H446.888V249.911C446.888 249.662 446.946 249.438 447.064 249.24C447.181 249.035 447.339 248.873 447.537 248.756C447.742 248.631 447.969 248.569 448.219 248.569H453.554C453.796 248.569 454.016 248.631 454.214 248.756C454.419 248.873 454.58 249.035 454.698 249.24C454.822 249.438 454.885 249.662 454.885 249.911V251.77C454.885 252.012 454.822 252.236 454.698 252.441C454.58 252.639 454.419 252.8 454.214 252.925C454.016 253.042 453.796 253.101 453.554 253.101H448.219C448.101 253.101 447.999 253.145 447.911 253.233C447.83 253.314 447.79 253.413 447.79 253.53V255.169C447.79 255.286 447.83 255.389 447.911 255.477C447.999 255.558 448.101 255.598 448.219 255.598H454.885V256.5H446.888ZM457.349 256.5C457.1 256.5 456.873 256.441 456.667 256.324C456.469 256.199 456.312 256.038 456.194 255.84C456.077 255.635 456.018 255.411 456.018 255.169V249.922C456.018 249.673 456.077 249.449 456.194 249.251C456.312 249.046 456.469 248.884 456.667 248.767C456.873 248.642 457.1 248.58 457.349 248.58H462.684C462.926 248.58 463.146 248.642 463.344 248.767C463.55 248.884 463.711 249.046 463.828 249.251C463.953 249.449 464.015 249.673 464.015 249.922V255.169C464.015 255.411 463.953 255.635 463.828 255.84C463.711 256.038 463.55 256.199 463.344 256.324C463.146 256.441 462.926 256.5 462.684 256.5H457.349ZM457.03 255.598H462.684C462.802 255.598 462.901 255.558 462.981 255.477C463.069 255.389 463.113 255.286 463.113 255.169V250.582L457.03 255.598ZM456.92 254.509L462.992 249.493H457.349C457.232 249.493 457.129 249.537 457.041 249.625C456.961 249.706 456.92 249.805 456.92 249.922V254.509Z" fill="white"/>
<path d="M187.844 222.5V219.53C187.844 219.281 187.902 219.057 188.02 218.859C188.137 218.654 188.295 218.492 188.493 218.375C188.698 218.258 188.925 218.199 189.175 218.199H194.51C194.627 218.199 194.726 218.159 194.807 218.078C194.895 217.99 194.939 217.887 194.939 217.77V215.911C194.939 215.794 194.895 215.695 194.807 215.614C194.726 215.526 194.627 215.482 194.51 215.482H189.175C189.057 215.482 188.955 215.526 188.867 215.614C188.786 215.695 188.746 215.794 188.746 215.911V216.219H187.844V215.911C187.844 215.662 187.902 215.438 188.02 215.24C188.137 215.035 188.295 214.873 188.493 214.756C188.698 214.631 188.925 214.569 189.175 214.569H194.51C194.752 214.569 194.972 214.631 195.17 214.756C195.375 214.873 195.536 215.035 195.654 215.24C195.778 215.438 195.841 215.662 195.841 215.911V217.77C195.841 218.012 195.778 218.236 195.654 218.441C195.536 218.639 195.375 218.8 195.17 218.925C194.972 219.042 194.752 219.101 194.51 219.101H189.175C189.057 219.101 188.955 219.145 188.867 219.233C188.786 219.314 188.746 219.413 188.746 219.53V221.169C188.746 221.286 188.786 221.389 188.867 221.477C188.955 221.558 189.057 221.598 189.175 221.598H195.841V222.5H187.844ZM198.306 222.5C198.056 222.5 197.829 222.441 197.624 222.324C197.426 222.199 197.268 222.038 197.151 221.84C197.033 221.635 196.975 221.411 196.975 221.169V215.922C196.975 215.673 197.033 215.449 197.151 215.251C197.268 215.046 197.426 214.884 197.624 214.767C197.829 214.642 198.056 214.58 198.306 214.58H203.641C203.883 214.58 204.103 214.642 204.301 214.767C204.506 214.884 204.667 215.046 204.785 215.251C204.909 215.449 204.972 215.673 204.972 215.922V221.169C204.972 221.411 204.909 221.635 204.785 221.84C204.667 222.038 204.506 222.199 204.301 222.324C204.103 222.441 203.883 222.5 203.641 222.5H198.306ZM197.987 221.598H203.641C203.758 221.598 203.857 221.558 203.938 221.477C204.026 221.389 204.07 221.286 204.07 221.169V216.582L197.987 221.598ZM197.877 220.509L203.949 215.493H198.306C198.188 215.493 198.086 215.537 197.998 215.625C197.917 215.706 197.877 215.805 197.877 215.922V220.509Z" fill="white"/>
<path d="M186.853 178.5V176.454H181.331V175.442L186.743 170.569H187.755V175.552H188.987V176.454H187.755V178.5H186.853ZM182.486 175.552H186.853V171.79L182.486 175.552ZM191.258 178.5C191.008 178.5 190.781 178.441 190.576 178.324C190.378 178.199 190.22 178.038 190.103 177.84C189.985 177.635 189.927 177.411 189.927 177.169V171.922C189.927 171.673 189.985 171.449 190.103 171.251C190.22 171.046 190.378 170.884 190.576 170.767C190.781 170.642 191.008 170.58 191.258 170.58H196.593C196.835 170.58 197.055 170.642 197.253 170.767C197.458 170.884 197.619 171.046 197.737 171.251C197.861 171.449 197.924 171.673 197.924 171.922V177.169C197.924 177.411 197.861 177.635 197.737 177.84C197.619 178.038 197.458 178.199 197.253 178.324C197.055 178.441 196.835 178.5 196.593 178.5H191.258ZM190.939 177.598H196.593C196.71 177.598 196.809 177.558 196.89 177.477C196.978 177.389 197.022 177.286 197.022 177.169V172.582L190.939 177.598ZM190.829 176.509L196.901 171.493H191.258C191.14 171.493 191.038 171.537 190.95 171.625C190.869 171.706 190.829 171.805 190.829 171.922V176.509Z" fill="white"/>
<path d="M187.228 141.5C186.979 141.5 186.752 141.441 186.546 141.324C186.348 141.199 186.191 141.038 186.073 140.84C185.956 140.635 185.897 140.411 185.897 140.169V134.911C185.897 134.662 185.956 134.438 186.073 134.24C186.191 134.035 186.348 133.873 186.546 133.756C186.752 133.631 186.979 133.569 187.228 133.569H192.508V134.482H187.228C187.111 134.482 187.008 134.526 186.92 134.614C186.84 134.695 186.799 134.794 186.799 134.911V136.495C186.799 136.612 186.84 136.715 186.92 136.803C187.008 136.891 187.111 136.935 187.228 136.935H192.563C192.805 136.935 193.025 136.994 193.223 137.111C193.429 137.228 193.59 137.39 193.707 137.595C193.832 137.793 193.894 138.017 193.894 138.266V140.169C193.894 140.411 193.832 140.635 193.707 140.84C193.59 141.038 193.429 141.199 193.223 141.324C193.025 141.441 192.805 141.5 192.563 141.5H187.228ZM187.228 140.598H192.563C192.681 140.598 192.78 140.558 192.86 140.477C192.948 140.389 192.992 140.286 192.992 140.169V138.266C192.992 138.149 192.948 138.05 192.86 137.969C192.78 137.881 192.681 137.837 192.563 137.837H186.799V140.169C186.799 140.286 186.84 140.389 186.92 140.477C187.008 140.558 187.111 140.598 187.228 140.598ZM196.252 141.5C196.002 141.5 195.775 141.441 195.57 141.324C195.372 141.199 195.214 141.038 195.097 140.84C194.979 140.635 194.921 140.411 194.921 140.169V134.922C194.921 134.673 194.979 134.449 195.097 134.251C195.214 134.046 195.372 133.884 195.57 133.767C195.775 133.642 196.002 133.58 196.252 133.58H201.587C201.829 133.58 202.049 133.642 202.247 133.767C202.452 133.884 202.613 134.046 202.731 134.251C202.855 134.449 202.918 134.673 202.918 134.922V140.169C202.918 140.411 202.855 140.635 202.731 140.84C202.613 141.038 202.452 141.199 202.247 141.324C202.049 141.441 201.829 141.5 201.587 141.5H196.252ZM195.933 140.598H201.587C201.704 140.598 201.803 140.558 201.884 140.477C201.972 140.389 202.016 140.286 202.016 140.169V135.582L195.933 140.598ZM195.823 139.509L201.895 134.493H196.252C196.134 134.493 196.032 134.537 195.944 134.625C195.863 134.706 195.823 134.805 195.823 134.922V139.509Z" fill="white"/>
<path d="M204.153 104.5C203.904 104.5 203.677 104.441 203.471 104.324C203.273 104.199 203.116 104.038 202.998 103.84C202.881 103.635 202.822 103.411 202.822 103.169V101.299C202.822 101.152 202.852 101.006 202.91 100.859C202.969 100.705 203.05 100.558 203.152 100.419C203.05 100.28 202.969 100.133 202.91 99.979C202.852 99.825 202.822 99.6746 202.822 99.528V97.911C202.822 97.6616 202.881 97.438 202.998 97.24C203.116 97.0346 203.273 96.8733 203.471 96.756C203.677 96.6313 203.904 96.569 204.153 96.569H209.488C209.694 96.569 209.884 96.624 210.06 96.734C210.244 96.8366 210.401 96.976 210.533 97.152C210.673 97.3206 210.768 97.5003 210.819 97.691V99.528C210.819 99.8213 210.709 100.118 210.489 100.419C210.709 100.705 210.819 100.998 210.819 101.299V103.169C210.819 103.411 210.757 103.635 210.632 103.84C210.515 104.038 210.354 104.199 210.148 104.324C209.95 104.441 209.73 104.5 209.488 104.5H204.153ZM204.153 103.598H209.488C209.606 103.598 209.705 103.558 209.785 103.477C209.873 103.389 209.917 103.286 209.917 103.169V101.299C209.917 101.182 209.873 101.083 209.785 101.002C209.705 100.914 209.606 100.87 209.488 100.87H204.153C204.036 100.87 203.933 100.914 203.845 101.002C203.765 101.083 203.724 101.182 203.724 101.299V103.169C203.724 103.286 203.765 103.389 203.845 103.477C203.933 103.558 204.036 103.598 204.153 103.598ZM204.153 100.089H209.488C209.606 100.089 209.705 100.049 209.785 99.968C209.873 99.88 209.917 99.7773 209.917 99.66V97.922C209.917 97.8046 209.873 97.7056 209.785 97.625C209.705 97.537 209.606 97.493 209.488 97.493H204.153C204.036 97.493 203.933 97.537 203.845 97.625C203.765 97.7056 203.724 97.8046 203.724 97.922V99.66C203.724 99.7773 203.765 99.88 203.845 99.968C203.933 100.049 204.036 100.089 204.153 100.089ZM213.327 104.5C213.078 104.5 212.85 104.441 212.645 104.324C212.447 104.199 212.289 104.038 212.172 103.84C212.055 103.635 211.996 103.411 211.996 103.169V97.922C211.996 97.6726 212.055 97.449 212.172 97.251C212.289 97.0456 212.447 96.8843 212.645 96.767C212.85 96.6423 213.078 96.58 213.327 96.58H218.662C218.904 96.58 219.124 96.6423 219.322 96.767C219.527 96.8843 219.689 97.0456 219.806 97.251C219.931 97.449 219.993 97.6726 219.993 97.922V103.169C219.993 103.411 219.931 103.635 219.806 103.84C219.689 104.038 219.527 104.199 219.322 104.324C219.124 104.441 218.904 104.5 218.662 104.5H213.327ZM213.008 103.598H218.662C218.779 103.598 218.878 103.558 218.959 103.477C219.047 103.389 219.091 103.286 219.091 103.169V98.582L213.008 103.598ZM212.898 102.509L218.97 97.493H213.327C213.21 97.493 213.107 97.537 213.019 97.625C212.938 97.7056 212.898 97.8046 212.898 97.922V102.509Z" fill="white"/>
<path d="M228.456 77.5V70.592L227.235 72.055H226.058L228.137 69.58H229.369V77.5H228.456ZM232.302 77.5C232.052 77.5 231.825 77.4413 231.62 77.324C231.422 77.1993 231.264 77.038 231.147 76.84C231.029 76.6346 230.971 76.411 230.971 76.169V70.922C230.971 70.6726 231.029 70.449 231.147 70.251C231.264 70.0456 231.422 69.8843 231.62 69.767C231.825 69.6423 232.052 69.58 232.302 69.58H237.637C237.879 69.58 238.099 69.6423 238.297 69.767C238.502 69.8843 238.663 70.0456 238.781 70.251C238.905 70.449 238.968 70.6726 238.968 70.922V76.169C238.968 76.411 238.905 76.6346 238.781 76.84C238.663 77.038 238.502 77.1993 238.297 77.324C238.099 77.4413 237.879 77.5 237.637 77.5H232.302ZM231.983 76.598H237.637C237.754 76.598 237.853 76.5576 237.934 76.477C238.022 76.389 238.066 76.2863 238.066 76.169V71.582L231.983 76.598ZM231.873 75.509L237.945 70.493H232.302C232.184 70.493 232.082 70.537 231.994 70.625C231.913 70.7056 231.873 70.8046 231.873 70.922V75.509ZM241.475 77.5C241.226 77.5 240.999 77.4413 240.793 77.324C240.595 77.1993 240.438 77.038 240.32 76.84C240.203 76.6346 240.144 76.411 240.144 76.169V70.922C240.144 70.6726 240.203 70.449 240.32 70.251C240.438 70.0456 240.595 69.8843 240.793 69.767C240.999 69.6423 241.226 69.58 241.475 69.58H246.81C247.052 69.58 247.272 69.6423 247.47 69.767C247.676 69.8843 247.837 70.0456 247.954 70.251C248.079 70.449 248.141 70.6726 248.141 70.922V76.169C248.141 76.411 248.079 76.6346 247.954 76.84C247.837 77.038 247.676 77.1993 247.47 77.324C247.272 77.4413 247.052 77.5 246.81 77.5H241.475ZM241.156 76.598H246.81C246.928 76.598 247.027 76.5576 247.107 76.477C247.195 76.389 247.239 76.2863 247.239 76.169V71.582L241.156 76.598ZM241.046 75.509L247.118 70.493H241.475C241.358 70.493 241.255 70.537 241.167 70.625C241.087 70.7056 241.046 70.8046 241.046 70.922V75.509Z" fill="white"/>
<path d="M257.477 52.5V45.592L256.256 47.055H255.079L257.158 44.58H258.39V52.5H257.477ZM259.992 52.5V49.53C259.992 49.2806 260.051 49.057 260.168 48.859C260.285 48.6536 260.443 48.4923 260.641 48.375C260.846 48.2576 261.074 48.199 261.323 48.199H266.658C266.775 48.199 266.874 48.1586 266.955 48.078C267.043 47.99 267.087 47.8873 267.087 47.77V45.911C267.087 45.7936 267.043 45.6946 266.955 45.614C266.874 45.526 266.775 45.482 266.658 45.482H261.323C261.206 45.482 261.103 45.526 261.015 45.614C260.934 45.6946 260.894 45.7936 260.894 45.911V46.219H259.992V45.911C259.992 45.6616 260.051 45.438 260.168 45.24C260.285 45.0346 260.443 44.8733 260.641 44.756C260.846 44.6313 261.074 44.569 261.323 44.569H266.658C266.9 44.569 267.12 44.6313 267.318 44.756C267.523 44.8733 267.685 45.0346 267.802 45.24C267.927 45.438 267.989 45.6616 267.989 45.911V47.77C267.989 48.012 267.927 48.2356 267.802 48.441C267.685 48.639 267.523 48.8003 267.318 48.925C267.12 49.0423 266.9 49.101 266.658 49.101H261.323C261.206 49.101 261.103 49.145 261.015 49.233C260.934 49.3136 260.894 49.4126 260.894 49.53V51.169C260.894 51.2863 260.934 51.389 261.015 51.477C261.103 51.5576 261.206 51.598 261.323 51.598H267.989V52.5H259.992ZM270.454 52.5C270.205 52.5 269.977 52.4413 269.772 52.324C269.574 52.1993 269.416 52.038 269.299 51.84C269.182 51.6346 269.123 51.411 269.123 51.169V45.922C269.123 45.6726 269.182 45.449 269.299 45.251C269.416 45.0456 269.574 44.8843 269.772 44.767C269.977 44.6423 270.205 44.58 270.454 44.58H275.789C276.031 44.58 276.251 44.6423 276.449 44.767C276.654 44.8843 276.816 45.0456 276.933 45.251C277.058 45.449 277.12 45.6726 277.12 45.922V51.169C277.12 51.411 277.058 51.6346 276.933 51.84C276.816 52.038 276.654 52.1993 276.449 52.324C276.251 52.4413 276.031 52.5 275.789 52.5H270.454ZM270.135 51.598H275.789C275.906 51.598 276.005 51.5576 276.086 51.477C276.174 51.389 276.218 51.2863 276.218 51.169V46.582L270.135 51.598ZM270.025 50.509L276.097 45.493H270.454C270.337 45.493 270.234 45.537 270.146 45.625C270.065 45.7056 270.025 45.8046 270.025 45.922V50.509Z" fill="white"/>
<path d="M293.025 38.5V31.592L291.804 33.055H290.627L292.706 30.58H293.938V38.5H293.025ZM300.501 38.5V36.454H294.979V35.442L300.391 30.569H301.403V35.552H302.635V36.454H301.403V38.5H300.501ZM296.134 35.552H300.501V31.79L296.134 35.552ZM304.906 38.5C304.657 38.5 304.429 38.4413 304.224 38.324C304.026 38.1993 303.868 38.038 303.751 37.84C303.634 37.6346 303.575 37.411 303.575 37.169V31.922C303.575 31.6726 303.634 31.449 303.751 31.251C303.868 31.0456 304.026 30.8843 304.224 30.767C304.429 30.6423 304.657 30.58 304.906 30.58H310.241C310.483 30.58 310.703 30.6423 310.901 30.767C311.106 30.8843 311.268 31.0456 311.385 31.251C311.51 31.449 311.572 31.6726 311.572 31.922V37.169C311.572 37.411 311.51 37.6346 311.385 37.84C311.268 38.038 311.106 38.1993 310.901 38.324C310.703 38.4413 310.483 38.5 310.241 38.5H304.906ZM304.587 37.598H310.241C310.358 37.598 310.457 37.5576 310.538 37.477C310.626 37.389 310.67 37.2863 310.67 37.169V32.582L304.587 37.598ZM304.477 36.509L310.549 31.493H304.906C304.789 31.493 304.686 31.537 304.598 31.625C304.517 31.7056 304.477 31.8046 304.477 31.922V36.509Z" fill="white"/>
<path d="M327.531 37.5V30.592L326.31 32.055H325.133L327.212 29.58H328.444V37.5H327.531ZM331.377 37.5C331.127 37.5 330.9 37.4413 330.695 37.324C330.497 37.1993 330.339 37.038 330.222 36.84C330.104 36.6346 330.046 36.411 330.046 36.169V30.911C330.046 30.6616 330.104 30.438 330.222 30.24C330.339 30.0346 330.497 29.8733 330.695 29.756C330.9 29.6313 331.127 29.569 331.377 29.569H336.657V30.482H331.377C331.259 30.482 331.157 30.526 331.069 30.614C330.988 30.6946 330.948 30.7936 330.948 30.911V32.495C330.948 32.6123 330.988 32.715 331.069 32.803C331.157 32.891 331.259 32.935 331.377 32.935H336.712C336.954 32.935 337.174 32.9936 337.372 33.111C337.577 33.2283 337.738 33.3896 337.856 33.595C337.98 33.793 338.043 34.0166 338.043 34.266V36.169C338.043 36.411 337.98 36.6346 337.856 36.84C337.738 37.038 337.577 37.1993 337.372 37.324C337.174 37.4413 336.954 37.5 336.712 37.5H331.377ZM331.377 36.598H336.712C336.829 36.598 336.928 36.5576 337.009 36.477C337.097 36.389 337.141 36.2863 337.141 36.169V34.266C337.141 34.1486 337.097 34.0496 337.009 33.969C336.928 33.881 336.829 33.837 336.712 33.837H330.948V36.169C330.948 36.2863 330.988 36.389 331.069 36.477C331.157 36.5576 331.259 36.598 331.377 36.598ZM340.4 37.5C340.151 37.5 339.924 37.4413 339.718 37.324C339.52 37.1993 339.363 37.038 339.245 36.84C339.128 36.6346 339.069 36.411 339.069 36.169V30.922C339.069 30.6726 339.128 30.449 339.245 30.251C339.363 30.0456 339.52 29.8843 339.718 29.767C339.924 29.6423 340.151 29.58 340.4 29.58H345.735C345.977 29.58 346.197 29.6423 346.395 29.767C346.601 29.8843 346.762 30.0456 346.879 30.251C347.004 30.449 347.066 30.6726 347.066 30.922V36.169C347.066 36.411 347.004 36.6346 346.879 36.84C346.762 37.038 346.601 37.1993 346.395 37.324C346.197 37.4413 345.977 37.5 345.735 37.5H340.4ZM340.081 36.598H345.735C345.853 36.598 345.952 36.5576 346.032 36.477C346.12 36.389 346.164 36.2863 346.164 36.169V31.582L340.081 36.598ZM339.971 35.509L346.043 30.493H340.4C340.283 30.493 340.18 30.537 340.092 30.625C340.012 30.7056 339.971 30.8046 339.971 30.922V35.509Z" fill="white"/>
<path d="M363.456 37.5V30.592L362.235 32.055H361.058L363.137 29.58H364.369V37.5H363.456ZM367.302 37.5C367.052 37.5 366.825 37.4413 366.62 37.324C366.422 37.1993 366.264 37.038 366.147 36.84C366.029 36.6346 365.971 36.411 365.971 36.169V34.299C365.971 34.1523 366 34.0056 366.059 33.859C366.117 33.705 366.198 33.5583 366.301 33.419C366.198 33.2796 366.117 33.133 366.059 32.979C366 32.825 365.971 32.6746 365.971 32.528V30.911C365.971 30.6616 366.029 30.438 366.147 30.24C366.264 30.0346 366.422 29.8733 366.62 29.756C366.825 29.6313 367.052 29.569 367.302 29.569H372.637C372.842 29.569 373.033 29.624 373.209 29.734C373.392 29.8366 373.55 29.976 373.682 30.152C373.821 30.3206 373.916 30.5003 373.968 30.691V32.528C373.968 32.8213 373.858 33.1183 373.638 33.419C373.858 33.705 373.968 33.9983 373.968 34.299V36.169C373.968 36.411 373.905 36.6346 373.781 36.84C373.663 37.038 373.502 37.1993 373.297 37.324C373.099 37.4413 372.879 37.5 372.637 37.5H367.302ZM367.302 36.598H372.637C372.754 36.598 372.853 36.5576 372.934 36.477C373.022 36.389 373.066 36.2863 373.066 36.169V34.299C373.066 34.1816 373.022 34.0826 372.934 34.002C372.853 33.914 372.754 33.87 372.637 33.87H367.302C367.184 33.87 367.082 33.914 366.994 34.002C366.913 34.0826 366.873 34.1816 366.873 34.299V36.169C366.873 36.2863 366.913 36.389 366.994 36.477C367.082 36.5576 367.184 36.598 367.302 36.598ZM367.302 33.089H372.637C372.754 33.089 372.853 33.0486 372.934 32.968C373.022 32.88 373.066 32.7773 373.066 32.66V30.922C373.066 30.8046 373.022 30.7056 372.934 30.625C372.853 30.537 372.754 30.493 372.637 30.493H367.302C367.184 30.493 367.082 30.537 366.994 30.625C366.913 30.7056 366.873 30.8046 366.873 30.922V32.66C366.873 32.7773 366.913 32.88 366.994 32.968C367.082 33.0486 367.184 33.089 367.302 33.089ZM376.475 37.5C376.226 37.5 375.999 37.4413 375.793 37.324C375.595 37.1993 375.438 37.038 375.32 36.84C375.203 36.6346 375.144 36.411 375.144 36.169V30.922C375.144 30.6726 375.203 30.449 375.32 30.251C375.438 30.0456 375.595 29.8843 375.793 29.767C375.999 29.6423 376.226 29.58 376.475 29.58H381.81C382.052 29.58 382.272 29.6423 382.47 29.767C382.676 29.8843 382.837 30.0456 382.954 30.251C383.079 30.449 383.141 30.6726 383.141 30.922V36.169C383.141 36.411 383.079 36.6346 382.954 36.84C382.837 37.038 382.676 37.1993 382.47 37.324C382.272 37.4413 382.052 37.5 381.81 37.5H376.475ZM376.156 36.598H381.81C381.928 36.598 382.027 36.5576 382.107 36.477C382.195 36.389 382.239 36.2863 382.239 36.169V31.582L376.156 36.598ZM376.046 35.509L382.118 30.493H376.475C376.358 30.493 376.255 30.537 376.167 30.625C376.087 30.7056 376.046 30.8046 376.046 30.922V35.509Z" fill="white"/>
<path d="M385.257 51.5V48.53C385.257 48.2806 385.315 48.057 385.433 47.859C385.55 47.6536 385.708 47.4923 385.906 47.375C386.111 47.2576 386.338 47.199 386.588 47.199H391.923C392.04 47.199 392.139 47.1586 392.22 47.078C392.308 46.99 392.352 46.8873 392.352 46.77V44.911C392.352 44.7936 392.308 44.6946 392.22 44.614C392.139 44.526 392.04 44.482 391.923 44.482H386.588C386.47 44.482 386.368 44.526 386.28 44.614C386.199 44.6946 386.159 44.7936 386.159 44.911V45.219H385.257V44.911C385.257 44.6616 385.315 44.438 385.433 44.24C385.55 44.0346 385.708 43.8733 385.906 43.756C386.111 43.6313 386.338 43.569 386.588 43.569H391.923C392.165 43.569 392.385 43.6313 392.583 43.756C392.788 43.8733 392.949 44.0346 393.067 44.24C393.191 44.438 393.254 44.6616 393.254 44.911V46.77C393.254 47.012 393.191 47.2356 393.067 47.441C392.949 47.639 392.788 47.8003 392.583 47.925C392.385 48.0423 392.165 48.101 391.923 48.101H386.588C386.47 48.101 386.368 48.145 386.28 48.233C386.199 48.3136 386.159 48.4126 386.159 48.53V50.169C386.159 50.2863 386.199 50.389 386.28 50.477C386.368 50.5576 386.47 50.598 386.588 50.598H393.254V51.5H385.257ZM395.719 51.5C395.469 51.5 395.242 51.4413 395.037 51.324C394.839 51.1993 394.681 51.038 394.564 50.84C394.446 50.6346 394.388 50.411 394.388 50.169V44.922C394.388 44.6726 394.446 44.449 394.564 44.251C394.681 44.0456 394.839 43.8843 395.037 43.767C395.242 43.6423 395.469 43.58 395.719 43.58H401.054C401.296 43.58 401.516 43.6423 401.714 43.767C401.919 43.8843 402.08 44.0456 402.198 44.251C402.322 44.449 402.385 44.6726 402.385 44.922V50.169C402.385 50.411 402.322 50.6346 402.198 50.84C402.08 51.038 401.919 51.1993 401.714 51.324C401.516 51.4413 401.296 51.5 401.054 51.5H395.719ZM395.4 50.598H401.054C401.171 50.598 401.27 50.5576 401.351 50.477C401.439 50.389 401.483 50.2863 401.483 50.169V45.582L395.4 50.598ZM395.29 49.509L401.362 44.493H395.719C395.601 44.493 395.499 44.537 395.411 44.625C395.33 44.7056 395.29 44.8046 395.29 44.922V49.509ZM404.892 51.5C404.643 51.5 404.416 51.4413 404.21 51.324C404.012 51.1993 403.855 51.038 403.737 50.84C403.62 50.6346 403.561 50.411 403.561 50.169V44.922C403.561 44.6726 403.62 44.449 403.737 44.251C403.855 44.0456 404.012 43.8843 404.21 43.767C404.416 43.6423 404.643 43.58 404.892 43.58H410.227C410.469 43.58 410.689 43.6423 410.887 43.767C411.093 43.8843 411.254 44.0456 411.371 44.251C411.496 44.449 411.558 44.6726 411.558 44.922V50.169C411.558 50.411 411.496 50.6346 411.371 50.84C411.254 51.038 411.093 51.1993 410.887 51.324C410.689 51.4413 410.469 51.5 410.227 51.5H404.892ZM404.573 50.598H410.227C410.345 50.598 410.444 50.5576 410.524 50.477C410.612 50.389 410.656 50.2863 410.656 50.169V45.582L404.573 50.598ZM404.463 49.509L410.535 44.493H404.892C404.775 44.493 404.672 44.537 404.584 44.625C404.504 44.7056 404.463 44.8046 404.463 44.922V49.509Z" fill="white"/>
<path d="M413.278 76.5V73.53C413.278 73.2806 413.337 73.057 413.454 72.859C413.572 72.6536 413.729 72.4923 413.927 72.375C414.133 72.2576 414.36 72.199 414.609 72.199H419.944C420.062 72.199 420.161 72.1586 420.241 72.078C420.329 71.99 420.373 71.8873 420.373 71.77V69.911C420.373 69.7936 420.329 69.6946 420.241 69.614C420.161 69.526 420.062 69.482 419.944 69.482H414.609C414.492 69.482 414.389 69.526 414.301 69.614C414.221 69.6946 414.18 69.7936 414.18 69.911V70.219H413.278V69.911C413.278 69.6616 413.337 69.438 413.454 69.24C413.572 69.0346 413.729 68.8733 413.927 68.756C414.133 68.6313 414.36 68.569 414.609 68.569H419.944C420.186 68.569 420.406 68.6313 420.604 68.756C420.81 68.8733 420.971 69.0346 421.088 69.24C421.213 69.438 421.275 69.6616 421.275 69.911V71.77C421.275 72.012 421.213 72.2356 421.088 72.441C420.971 72.639 420.81 72.8003 420.604 72.925C420.406 73.0423 420.186 73.101 419.944 73.101H414.609C414.492 73.101 414.389 73.145 414.301 73.233C414.221 73.3136 414.18 73.4126 414.18 73.53V75.169C414.18 75.2863 414.221 75.389 414.301 75.477C414.389 75.5576 414.492 75.598 414.609 75.598H421.275V76.5H413.278ZM422.409 76.5V73.53C422.409 73.2806 422.468 73.057 422.585 72.859C422.702 72.6536 422.86 72.4923 423.058 72.375C423.263 72.2576 423.491 72.199 423.74 72.199H429.075C429.192 72.199 429.291 72.1586 429.372 72.078C429.46 71.99 429.504 71.8873 429.504 71.77V69.911C429.504 69.7936 429.46 69.6946 429.372 69.614C429.291 69.526 429.192 69.482 429.075 69.482H423.74C423.623 69.482 423.52 69.526 423.432 69.614C423.351 69.6946 423.311 69.7936 423.311 69.911V70.219H422.409V69.911C422.409 69.6616 422.468 69.438 422.585 69.24C422.702 69.0346 422.86 68.8733 423.058 68.756C423.263 68.6313 423.491 68.569 423.74 68.569H429.075C429.317 68.569 429.537 68.6313 429.735 68.756C429.94 68.8733 430.102 69.0346 430.219 69.24C430.344 69.438 430.406 69.6616 430.406 69.911V71.77C430.406 72.012 430.344 72.2356 430.219 72.441C430.102 72.639 429.94 72.8003 429.735 72.925C429.537 73.0423 429.317 73.101 429.075 73.101H423.74C423.623 73.101 423.52 73.145 423.432 73.233C423.351 73.3136 423.311 73.4126 423.311 73.53V75.169C423.311 75.2863 423.351 75.389 423.432 75.477C423.52 75.5576 423.623 75.598 423.74 75.598H430.406V76.5H422.409ZM432.871 76.5C432.622 76.5 432.394 76.4413 432.189 76.324C431.991 76.1993 431.833 76.038 431.716 75.84C431.599 75.6346 431.54 75.411 431.54 75.169V69.922C431.54 69.6726 431.599 69.449 431.716 69.251C431.833 69.0456 431.991 68.8843 432.189 68.767C432.394 68.6423 432.622 68.58 432.871 68.58H438.206C438.448 68.58 438.668 68.6423 438.866 68.767C439.071 68.8843 439.233 69.0456 439.35 69.251C439.475 69.449 439.537 69.6726 439.537 69.922V75.169C439.537 75.411 439.475 75.6346 439.35 75.84C439.233 76.038 439.071 76.1993 438.866 76.324C438.668 76.4413 438.448 76.5 438.206 76.5H432.871ZM432.552 75.598H438.206C438.323 75.598 438.422 75.5576 438.503 75.477C438.591 75.389 438.635 75.2863 438.635 75.169V70.582L432.552 75.598ZM432.442 74.509L438.514 69.493H432.871C432.754 69.493 432.651 69.537 432.563 69.625C432.482 69.7056 432.442 69.8046 432.442 69.922V74.509Z" fill="white"/>
<path d="M439.826 107.5V104.53C439.826 104.281 439.885 104.057 440.002 103.859C440.119 103.654 440.277 103.492 440.475 103.375C440.68 103.258 440.908 103.199 441.157 103.199H446.492C446.609 103.199 446.708 103.159 446.789 103.078C446.877 102.99 446.921 102.887 446.921 102.77V100.911C446.921 100.794 446.877 100.695 446.789 100.614C446.708 100.526 446.609 100.482 446.492 100.482H441.157C441.04 100.482 440.937 100.526 440.849 100.614C440.768 100.695 440.728 100.794 440.728 100.911V101.219H439.826V100.911C439.826 100.662 439.885 100.438 440.002 100.24C440.119 100.035 440.277 99.8733 440.475 99.756C440.68 99.6313 440.908 99.569 441.157 99.569H446.492C446.734 99.569 446.954 99.6313 447.152 99.756C447.357 99.8733 447.519 100.035 447.636 100.24C447.761 100.438 447.823 100.662 447.823 100.911V102.77C447.823 103.012 447.761 103.236 447.636 103.441C447.519 103.639 447.357 103.8 447.152 103.925C446.954 104.042 446.734 104.101 446.492 104.101H441.157C441.04 104.101 440.937 104.145 440.849 104.233C440.768 104.314 440.728 104.413 440.728 104.53V106.169C440.728 106.286 440.768 106.389 440.849 106.477C440.937 106.558 441.04 106.598 441.157 106.598H447.823V107.5H439.826ZM453.918 107.5V105.454H448.396V104.442L453.808 99.569H454.82V104.552H456.052V105.454H454.82V107.5H453.918ZM449.551 104.552H453.918V100.79L449.551 104.552ZM458.323 107.5C458.074 107.5 457.846 107.441 457.641 107.324C457.443 107.199 457.285 107.038 457.168 106.84C457.051 106.635 456.992 106.411 456.992 106.169V100.922C456.992 100.673 457.051 100.449 457.168 100.251C457.285 100.046 457.443 99.8843 457.641 99.767C457.846 99.6423 458.074 99.58 458.323 99.58H463.658C463.9 99.58 464.12 99.6423 464.318 99.767C464.523 99.8843 464.685 100.046 464.802 100.251C464.927 100.449 464.989 100.673 464.989 100.922V106.169C464.989 106.411 464.927 106.635 464.802 106.84C464.685 107.038 464.523 107.199 464.318 107.324C464.12 107.441 463.9 107.5 463.658 107.5H458.323ZM458.004 106.598H463.658C463.775 106.598 463.874 106.558 463.955 106.477C464.043 106.389 464.087 106.286 464.087 106.169V101.582L458.004 106.598ZM457.894 105.509L463.966 100.493H458.323C458.206 100.493 458.103 100.537 458.015 100.625C457.934 100.706 457.894 100.805 457.894 100.922V105.509Z" fill="white"/>
<path d="M453.332 141.5V138.53C453.332 138.281 453.391 138.057 453.508 137.859C453.625 137.654 453.783 137.492 453.981 137.375C454.186 137.258 454.414 137.199 454.663 137.199H459.998C460.115 137.199 460.214 137.159 460.295 137.078C460.383 136.99 460.427 136.887 460.427 136.77V134.911C460.427 134.794 460.383 134.695 460.295 134.614C460.214 134.526 460.115 134.482 459.998 134.482H454.663C454.546 134.482 454.443 134.526 454.355 134.614C454.274 134.695 454.234 134.794 454.234 134.911V135.219H453.332V134.911C453.332 134.662 453.391 134.438 453.508 134.24C453.625 134.035 453.783 133.873 453.981 133.756C454.186 133.631 454.414 133.569 454.663 133.569H459.998C460.24 133.569 460.46 133.631 460.658 133.756C460.863 133.873 461.025 134.035 461.142 134.24C461.267 134.438 461.329 134.662 461.329 134.911V136.77C461.329 137.012 461.267 137.236 461.142 137.441C461.025 137.639 460.863 137.8 460.658 137.925C460.46 138.042 460.24 138.101 459.998 138.101H454.663C454.546 138.101 454.443 138.145 454.355 138.233C454.274 138.314 454.234 138.413 454.234 138.53V140.169C454.234 140.286 454.274 140.389 454.355 140.477C454.443 140.558 454.546 140.598 454.663 140.598H461.329V141.5H453.332ZM463.794 141.5C463.544 141.5 463.317 141.441 463.112 141.324C462.914 141.199 462.756 141.038 462.639 140.84C462.521 140.635 462.463 140.411 462.463 140.169V134.911C462.463 134.662 462.521 134.438 462.639 134.24C462.756 134.035 462.914 133.873 463.112 133.756C463.317 133.631 463.544 133.569 463.794 133.569H469.074V134.482H463.794C463.676 134.482 463.574 134.526 463.486 134.614C463.405 134.695 463.365 134.794 463.365 134.911V136.495C463.365 136.612 463.405 136.715 463.486 136.803C463.574 136.891 463.676 136.935 463.794 136.935H469.129C469.371 136.935 469.591 136.994 469.789 137.111C469.994 137.228 470.155 137.39 470.273 137.595C470.397 137.793 470.46 138.017 470.46 138.266V140.169C470.46 140.411 470.397 140.635 470.273 140.84C470.155 141.038 469.994 141.199 469.789 141.324C469.591 141.441 469.371 141.5 469.129 141.5H463.794ZM463.794 140.598H469.129C469.246 140.598 469.345 140.558 469.426 140.477C469.514 140.389 469.558 140.286 469.558 140.169V138.266C469.558 138.149 469.514 138.05 469.426 137.969C469.345 137.881 469.246 137.837 469.129 137.837H463.365V140.169C463.365 140.286 463.405 140.389 463.486 140.477C463.574 140.558 463.676 140.598 463.794 140.598ZM472.817 141.5C472.568 141.5 472.341 141.441 472.135 141.324C471.937 141.199 471.78 141.038 471.662 140.84C471.545 140.635 471.486 140.411 471.486 140.169V134.922C471.486 134.673 471.545 134.449 471.662 134.251C471.78 134.046 471.937 133.884 472.135 133.767C472.341 133.642 472.568 133.58 472.817 133.58H478.152C478.394 133.58 478.614 133.642 478.812 133.767C479.018 133.884 479.179 134.046 479.296 134.251C479.421 134.449 479.483 134.673 479.483 134.922V140.169C479.483 140.411 479.421 140.635 479.296 140.84C479.179 141.038 479.018 141.199 478.812 141.324C478.614 141.441 478.394 141.5 478.152 141.5H472.817ZM472.498 140.598H478.152C478.27 140.598 478.369 140.558 478.449 140.477C478.537 140.389 478.581 140.286 478.581 140.169V135.582L472.498 140.598ZM472.388 139.509L478.46 134.493H472.817C472.7 134.493 472.597 134.537 472.509 134.625C472.429 134.706 472.388 134.805 472.388 134.922V139.509Z" fill="white"/>
<path d="M457.257 181.5V178.53C457.257 178.281 457.315 178.057 457.433 177.859C457.55 177.654 457.708 177.492 457.906 177.375C458.111 177.258 458.338 177.199 458.588 177.199H463.923C464.04 177.199 464.139 177.159 464.22 177.078C464.308 176.99 464.352 176.887 464.352 176.77V174.911C464.352 174.794 464.308 174.695 464.22 174.614C464.139 174.526 464.04 174.482 463.923 174.482H458.588C458.47 174.482 458.368 174.526 458.28 174.614C458.199 174.695 458.159 174.794 458.159 174.911V175.219H457.257V174.911C457.257 174.662 457.315 174.438 457.433 174.24C457.55 174.035 457.708 173.873 457.906 173.756C458.111 173.631 458.338 173.569 458.588 173.569H463.923C464.165 173.569 464.385 173.631 464.583 173.756C464.788 173.873 464.949 174.035 465.067 174.24C465.191 174.438 465.254 174.662 465.254 174.911V176.77C465.254 177.012 465.191 177.236 465.067 177.441C464.949 177.639 464.788 177.8 464.583 177.925C464.385 178.042 464.165 178.101 463.923 178.101H458.588C458.47 178.101 458.368 178.145 458.28 178.233C458.199 178.314 458.159 178.413 458.159 178.53V180.169C458.159 180.286 458.199 180.389 458.28 180.477C458.368 180.558 458.47 180.598 458.588 180.598H465.254V181.5H457.257ZM467.719 181.5C467.469 181.5 467.242 181.441 467.037 181.324C466.839 181.199 466.681 181.038 466.564 180.84C466.446 180.635 466.388 180.411 466.388 180.169V178.299C466.388 178.152 466.417 178.006 466.476 177.859C466.534 177.705 466.615 177.558 466.718 177.419C466.615 177.28 466.534 177.133 466.476 176.979C466.417 176.825 466.388 176.675 466.388 176.528V174.911C466.388 174.662 466.446 174.438 466.564 174.24C466.681 174.035 466.839 173.873 467.037 173.756C467.242 173.631 467.469 173.569 467.719 173.569H473.054C473.259 173.569 473.45 173.624 473.626 173.734C473.809 173.837 473.967 173.976 474.099 174.152C474.238 174.321 474.333 174.5 474.385 174.691V176.528C474.385 176.821 474.275 177.118 474.055 177.419C474.275 177.705 474.385 177.998 474.385 178.299V180.169C474.385 180.411 474.322 180.635 474.198 180.84C474.08 181.038 473.919 181.199 473.714 181.324C473.516 181.441 473.296 181.5 473.054 181.5H467.719ZM467.719 180.598H473.054C473.171 180.598 473.27 180.558 473.351 180.477C473.439 180.389 473.483 180.286 473.483 180.169V178.299C473.483 178.182 473.439 178.083 473.351 178.002C473.27 177.914 473.171 177.87 473.054 177.87H467.719C467.601 177.87 467.499 177.914 467.411 178.002C467.33 178.083 467.29 178.182 467.29 178.299V180.169C467.29 180.286 467.33 180.389 467.411 180.477C467.499 180.558 467.601 180.598 467.719 180.598ZM467.719 177.089H473.054C473.171 177.089 473.27 177.049 473.351 176.968C473.439 176.88 473.483 176.777 473.483 176.66V174.922C473.483 174.805 473.439 174.706 473.351 174.625C473.27 174.537 473.171 174.493 473.054 174.493H467.719C467.601 174.493 467.499 174.537 467.411 174.625C467.33 174.706 467.29 174.805 467.29 174.922V176.66C467.29 176.777 467.33 176.88 467.411 176.968C467.499 177.049 467.601 177.089 467.719 177.089ZM476.892 181.5C476.643 181.5 476.416 181.441 476.21 181.324C476.012 181.199 475.855 181.038 475.737 180.84C475.62 180.635 475.561 180.411 475.561 180.169V174.922C475.561 174.673 475.62 174.449 475.737 174.251C475.855 174.046 476.012 173.884 476.21 173.767C476.416 173.642 476.643 173.58 476.892 173.58H482.227C482.469 173.58 482.689 173.642 482.887 173.767C483.093 173.884 483.254 174.046 483.371 174.251C483.496 174.449 483.558 174.673 483.558 174.922V180.169C483.558 180.411 483.496 180.635 483.371 180.84C483.254 181.038 483.093 181.199 482.887 181.324C482.689 181.441 482.469 181.5 482.227 181.5H476.892ZM476.573 180.598H482.227C482.345 180.598 482.444 180.558 482.524 180.477C482.612 180.389 482.656 180.286 482.656 180.169V175.582L476.573 180.598ZM476.463 179.509L482.535 174.493H476.892C476.775 174.493 476.672 174.537 476.584 174.625C476.504 174.706 476.463 174.805 476.463 174.922V179.509Z" fill="white"/>
<path d="M454.576 223.5C454.327 223.5 454.1 223.441 453.894 223.324C453.696 223.199 453.535 223.038 453.41 222.84C453.293 222.635 453.234 222.411 453.234 222.169V221.993H454.147V222.169C454.147 222.286 454.188 222.389 454.268 222.477C454.356 222.558 454.459 222.598 454.576 222.598H459.911C460.029 222.598 460.128 222.558 460.208 222.477C460.296 222.389 460.34 222.286 460.34 222.169V220.332C460.34 220.215 460.296 220.116 460.208 220.035C460.128 219.947 460.029 219.903 459.911 219.903H454.752V219.001H459.559C459.677 219.001 459.776 218.961 459.856 218.88C459.944 218.792 459.988 218.689 459.988 218.572V216.911C459.988 216.794 459.944 216.695 459.856 216.614C459.776 216.526 459.677 216.482 459.559 216.482H454.576C454.459 216.482 454.356 216.526 454.268 216.614C454.188 216.695 454.147 216.794 454.147 216.911V217.197H453.234V216.911C453.234 216.662 453.293 216.438 453.41 216.24C453.535 216.035 453.696 215.873 453.894 215.756C454.1 215.631 454.327 215.569 454.576 215.569H459.559C459.809 215.569 460.032 215.631 460.23 215.756C460.436 215.873 460.597 216.035 460.714 216.24C460.832 216.438 460.89 216.662 460.89 216.911V218.572C460.89 218.675 460.876 218.777 460.846 218.88C460.824 218.975 460.795 219.063 460.758 219.144C460.942 219.32 461.066 219.514 461.132 219.727C461.206 219.94 461.242 220.141 461.242 220.332V222.169C461.242 222.411 461.18 222.635 461.055 222.84C460.938 223.038 460.777 223.199 460.571 223.324C460.373 223.441 460.153 223.5 459.911 223.5H454.576ZM463.697 223.5C463.448 223.5 463.22 223.441 463.015 223.324C462.817 223.199 462.659 223.038 462.542 222.84C462.425 222.635 462.366 222.411 462.366 222.169V216.922C462.366 216.673 462.425 216.449 462.542 216.251C462.659 216.046 462.817 215.884 463.015 215.767C463.22 215.642 463.448 215.58 463.697 215.58H469.032C469.274 215.58 469.494 215.642 469.692 215.767C469.897 215.884 470.059 216.046 470.176 216.251C470.301 216.449 470.363 216.673 470.363 216.922V222.169C470.363 222.411 470.301 222.635 470.176 222.84C470.059 223.038 469.897 223.199 469.692 223.324C469.494 223.441 469.274 223.5 469.032 223.5H463.697ZM463.378 222.598H469.032C469.149 222.598 469.248 222.558 469.329 222.477C469.417 222.389 469.461 222.286 469.461 222.169V217.582L463.378 222.598ZM463.268 221.509L469.34 216.493H463.697C463.58 216.493 463.477 216.537 463.389 216.625C463.308 216.706 463.268 216.805 463.268 216.922V221.509ZM472.871 223.5C472.622 223.5 472.394 223.441 472.189 223.324C471.991 223.199 471.833 223.038 471.716 222.84C471.599 222.635 471.54 222.411 471.54 222.169V216.922C471.54 216.673 471.599 216.449 471.716 216.251C471.833 216.046 471.991 215.884 472.189 215.767C472.394 215.642 472.622 215.58 472.871 215.58H478.206C478.448 215.58 478.668 215.642 478.866 215.767C479.071 215.884 479.233 216.046 479.35 216.251C479.475 216.449 479.537 216.673 479.537 216.922V222.169C479.537 222.411 479.475 222.635 479.35 222.84C479.233 223.038 479.071 223.199 478.866 223.324C478.668 223.441 478.448 223.5 478.206 223.5H472.871ZM472.552 222.598H478.206C478.323 222.598 478.422 222.558 478.503 222.477C478.591 222.389 478.635 222.286 478.635 222.169V217.582L472.552 222.598ZM472.442 221.509L478.514 216.493H472.871C472.754 216.493 472.651 216.537 472.563 216.625C472.482 216.706 472.442 216.805 472.442 216.922V221.509Z" fill="white"/>
<path d="M59.6989 205.5C60.0328 186.377 75.441 171.096 94.1641 171.423C112.887 171.75 127.754 187.559 127.42 206.682C127.086 225.806 111.677 241.087 92.9539 240.76C74.2307 240.433 59.3651 224.624 59.6989 205.5Z" stroke="url(#paint4_linear_18_158)" stroke-width="2"/>
<path d="M161.704 138.037C145.195 122.356 122.992 112.574 98.4322 112.145C46.3672 111.237 3.42346 152.707 2.51466 204.772C1.60587 256.837 43.0762 299.781 95.1411 300.689C119.503 301.115 141.868 292.261 158.864 277.385" stroke="url(#paint5_linear_18_158)" stroke-width="5" stroke-linecap="round"/>
<path d="M161.704 138.037C145.195 122.356 122.992 112.574 98.4322 112.145C46.3672 111.237 3.42346 152.707 2.51466 204.772C1.60587 256.837 43.0762 299.781 95.1411 300.689C119.503 301.115 141.868 292.261 158.864 277.385" stroke="url(#paint6_linear_18_158)" stroke-opacity="0.29" stroke-width="5" stroke-linecap="round"/>
<path opacity="0.55" d="M144.291 281.745C130.23 290.395 113.584 295.266 95.8142 294.956C46.5489 294.096 7.3037 253.74 8.15764 204.818C9.01157 155.896 49.6413 116.934 98.9066 117.794C116.676 118.104 133.142 123.553 146.893 132.688" stroke="url(#paint7_linear_18_158)" stroke-width="6" stroke-miterlimit="3.99933" stroke-dasharray="1 10"/>
<path d="M140.985 277.219L146.831 284.53L145.287 285.533L140.985 277.219Z" fill="#D9D9D9"/>
<path d="M143.429 137.218L149.526 130.115L148.018 129.059L143.429 137.218Z" fill="#D9D9D9"/>
<path d="M87.1813 227.5L84.5963 224.42H85.7623L88.3583 227.489V227.5H87.1813ZM80.4933 227.5V219.591H87.0933C87.3353 219.591 87.5553 219.653 87.7533 219.778C87.9587 219.895 88.12 220.053 88.2373 220.251C88.3547 220.449 88.4133 220.669 88.4133 220.911V223.232C88.4133 223.474 88.3547 223.694 88.2373 223.892C88.12 224.09 87.9587 224.251 87.7533 224.376C87.5553 224.493 87.3353 224.552 87.0933 224.552H81.3843V227.5H80.4933ZM81.8133 223.65H87.0933C87.2107 223.65 87.3097 223.61 87.3903 223.529C87.4783 223.448 87.5223 223.349 87.5223 223.232V220.911C87.5223 220.794 87.4783 220.695 87.3903 220.614C87.3097 220.526 87.2107 220.482 87.0933 220.482H81.8133C81.696 220.482 81.5933 220.526 81.5053 220.614C81.4247 220.695 81.3843 220.794 81.3843 220.911V223.232C81.3843 223.349 81.4247 223.448 81.5053 223.529C81.5933 223.61 81.696 223.65 81.8133 223.65ZM89.5705 227.5V219.591H96.1705C96.4125 219.591 96.6325 219.653 96.8305 219.778C97.0358 219.895 97.1971 220.053 97.3145 220.251C97.4318 220.449 97.4905 220.669 97.4905 220.911V223.232C97.4905 223.474 97.4318 223.694 97.3145 223.892C97.1971 224.09 97.0358 224.251 96.8305 224.376C96.6325 224.493 96.4125 224.552 96.1705 224.552H90.4615V227.5H89.5705ZM90.8905 223.65H96.1705C96.2878 223.65 96.3868 223.61 96.4675 223.529C96.5555 223.448 96.5995 223.349 96.5995 223.232V220.911C96.5995 220.794 96.5555 220.695 96.4675 220.614C96.3868 220.526 96.2878 220.482 96.1705 220.482H90.8905C90.7731 220.482 90.6705 220.526 90.5825 220.614C90.5018 220.695 90.4615 220.794 90.4615 220.911V223.232C90.4615 223.349 90.5018 223.448 90.5825 223.529C90.6705 223.61 90.7731 223.65 90.8905 223.65ZM98.2716 227.5V219.58H99.4926L102.782 223.496L106.071 219.58H107.292V227.5H106.401V220.592L102.782 224.893L99.1626 220.592V227.5H98.2716Z" fill="white"/>
<path d="M605.306 207.5C604.972 188.377 589.564 173.096 570.841 173.423C552.118 173.75 537.251 189.559 537.585 208.682C537.919 227.806 553.328 243.087 572.051 242.76C590.774 242.433 605.64 226.624 605.306 207.5Z" stroke="url(#paint8_linear_18_158)" stroke-width="2"/>
<path d="M503.301 140.037C519.81 124.356 542.013 114.574 566.573 114.145C618.638 113.237 661.582 154.707 662.49 206.772C663.399 258.837 621.929 301.781 569.864 302.689C545.502 303.115 523.137 294.261 506.141 279.385" stroke="url(#paint9_linear_18_158)" stroke-width="5" stroke-linecap="round"/>
<path d="M503.301 140.037C519.81 124.356 542.013 114.574 566.573 114.145C618.638 113.237 661.582 154.707 662.49 206.772C663.399 258.837 621.929 301.781 569.864 302.689C545.502 303.115 523.137 294.261 506.141 279.385" stroke="url(#paint10_linear_18_158)" stroke-opacity="0.29" stroke-width="5" stroke-linecap="round"/>
<path d="M551.993 227.5C551.751 227.5 551.528 227.441 551.322 227.324C551.124 227.207 550.967 227.049 550.849 226.851C550.732 226.646 550.673 226.422 550.673 226.18V220.9C550.673 220.658 550.732 220.438 550.849 220.24C550.967 220.035 551.124 219.873 551.322 219.756C551.528 219.639 551.751 219.58 551.993 219.58H558.571V220.471H551.993C551.876 220.471 551.773 220.515 551.685 220.603C551.605 220.684 551.564 220.783 551.564 220.9V226.18C551.564 226.297 551.605 226.4 551.685 226.488C551.773 226.569 551.876 226.609 551.993 226.609H558.571V227.5H551.993ZM560.994 227.5C560.752 227.5 560.529 227.441 560.323 227.324C560.125 227.199 559.964 227.038 559.839 226.84C559.722 226.635 559.663 226.411 559.663 226.169V222.451C559.663 222.209 559.722 221.989 559.839 221.791C559.964 221.586 560.125 221.424 560.323 221.307C560.529 221.182 560.752 221.12 560.994 221.12H564.822C565.072 221.12 565.295 221.182 565.493 221.307C565.699 221.424 565.86 221.586 565.977 221.791C566.102 221.989 566.164 222.209 566.164 222.451V224.761H560.565V226.169C560.565 226.286 560.606 226.389 560.686 226.477C560.774 226.558 560.877 226.598 560.994 226.598H566.164V227.5H560.994ZM560.565 223.859H565.251V222.451C565.251 222.334 565.207 222.235 565.119 222.154C565.039 222.066 564.94 222.022 564.822 222.022H560.994C560.877 222.022 560.774 222.066 560.686 222.154C560.606 222.235 560.565 222.334 560.565 222.451V223.859ZM568.407 227.5C568.165 227.5 567.941 227.441 567.736 227.324C567.538 227.199 567.376 227.038 567.252 226.84C567.134 226.635 567.076 226.411 567.076 226.169V219.03H567.978V226.169C567.978 226.286 568.018 226.389 568.099 226.477C568.187 226.558 568.289 226.598 568.407 226.598H569.485V227.5H568.407ZM571.682 227.5C571.44 227.5 571.216 227.441 571.011 227.324C570.813 227.199 570.652 227.038 570.527 226.84C570.41 226.635 570.351 226.411 570.351 226.169V226.081H571.253V226.169C571.253 226.286 571.293 226.389 571.374 226.477C571.462 226.558 571.565 226.598 571.682 226.598H575.51C575.627 226.598 575.726 226.558 575.807 226.477C575.895 226.389 575.939 226.286 575.939 226.169V225.19C575.939 225.073 575.895 224.974 575.807 224.893C575.726 224.805 575.627 224.761 575.51 224.761H571.682C571.44 224.761 571.216 224.702 571.011 224.585C570.813 224.46 570.652 224.299 570.527 224.101C570.41 223.896 570.351 223.672 570.351 223.43V222.451C570.351 222.209 570.41 221.989 570.527 221.791C570.652 221.586 570.813 221.424 571.011 221.307C571.216 221.182 571.44 221.12 571.682 221.12H575.51C575.759 221.12 575.983 221.182 576.181 221.307C576.386 221.424 576.548 221.586 576.665 221.791C576.79 221.989 576.852 222.209 576.852 222.451V222.539H575.939V222.451C575.939 222.334 575.895 222.235 575.807 222.154C575.726 222.066 575.627 222.022 575.51 222.022H571.682C571.565 222.022 571.462 222.066 571.374 222.154C571.293 222.235 571.253 222.334 571.253 222.451V223.43C571.253 223.547 571.293 223.65 571.374 223.738C571.462 223.819 571.565 223.859 571.682 223.859H575.51C575.759 223.859 575.983 223.921 576.181 224.046C576.386 224.163 576.548 224.325 576.665 224.53C576.79 224.728 576.852 224.948 576.852 225.19V226.169C576.852 226.411 576.79 226.635 576.665 226.84C576.548 227.038 576.386 227.199 576.181 227.324C575.983 227.441 575.759 227.5 575.51 227.5H571.682ZM577.936 227.5V221.12H578.838V227.5H577.936ZM577.936 219.932V219.03H578.838V219.932H577.936ZM581.566 227.5C581.324 227.5 581.101 227.441 580.895 227.324C580.697 227.199 580.536 227.038 580.411 226.84C580.294 226.635 580.235 226.411 580.235 226.169V221.12H581.137V226.169C581.137 226.286 581.178 226.389 581.258 226.477C581.346 226.558 581.449 226.598 581.566 226.598H585.394C585.512 226.598 585.614 226.558 585.702 226.477C585.79 226.389 585.834 226.286 585.834 226.169V221.12H586.736V226.169C586.736 226.411 586.674 226.635 586.549 226.84C586.432 227.038 586.271 227.199 586.065 227.324C585.867 227.441 585.644 227.5 585.394 227.5H581.566ZM588.999 227.5C588.757 227.5 588.533 227.441 588.328 227.324C588.13 227.199 587.968 227.038 587.844 226.84C587.726 226.635 587.668 226.411 587.668 226.169V226.081H588.57V226.169C588.57 226.286 588.61 226.389 588.691 226.477C588.779 226.558 588.881 226.598 588.999 226.598H592.827C592.944 226.598 593.043 226.558 593.124 226.477C593.212 226.389 593.256 226.286 593.256 226.169V225.19C593.256 225.073 593.212 224.974 593.124 224.893C593.043 224.805 592.944 224.761 592.827 224.761H588.999C588.757 224.761 588.533 224.702 588.328 224.585C588.13 224.46 587.968 224.299 587.844 224.101C587.726 223.896 587.668 223.672 587.668 223.43V222.451C587.668 222.209 587.726 221.989 587.844 221.791C587.968 221.586 588.13 221.424 588.328 221.307C588.533 221.182 588.757 221.12 588.999 221.12H592.827C593.076 221.12 593.3 221.182 593.498 221.307C593.703 221.424 593.864 221.586 593.982 221.791C594.106 221.989 594.169 222.209 594.169 222.451V222.539H593.256V222.451C593.256 222.334 593.212 222.235 593.124 222.154C593.043 222.066 592.944 222.022 592.827 222.022H588.999C588.881 222.022 588.779 222.066 588.691 222.154C588.61 222.235 588.57 222.334 588.57 222.451V223.43C588.57 223.547 588.61 223.65 588.691 223.738C588.779 223.819 588.881 223.859 588.999 223.859H592.827C593.076 223.859 593.3 223.921 593.498 224.046C593.703 224.163 593.864 224.325 593.982 224.53C594.106 224.728 594.169 224.948 594.169 225.19V226.169C594.169 226.411 594.106 226.635 593.982 226.84C593.864 227.038 593.703 227.199 593.498 227.324C593.3 227.441 593.076 227.5 592.827 227.5H588.999Z" fill="white"/>
<path d="M564.584 126.618V134.5H563.517V130.914H559.266V134.5H558.199V126.618H559.266V130.133H563.517V126.618H564.584ZM573.881 130.562C573.881 131.152 573.788 131.695 573.601 132.19C573.414 132.681 573.15 133.105 572.809 133.46C572.468 133.816 572.057 134.093 571.577 134.291C571.1 134.485 570.572 134.582 569.993 134.582C569.413 134.582 568.885 134.485 568.409 134.291C567.932 134.093 567.523 133.816 567.182 133.46C566.841 133.105 566.577 132.681 566.39 132.19C566.203 131.695 566.11 131.152 566.11 130.562C566.11 129.972 566.203 129.431 566.39 128.939C566.577 128.444 566.841 128.019 567.182 127.663C567.523 127.304 567.932 127.025 568.409 126.827C568.885 126.629 569.413 126.53 569.993 126.53C570.572 126.53 571.1 126.629 571.577 126.827C572.057 127.025 572.468 127.304 572.809 127.663C573.15 128.019 573.414 128.444 573.601 128.939C573.788 129.431 573.881 129.972 573.881 130.562ZM572.787 130.562C572.787 130.078 572.721 129.643 572.589 129.258C572.457 128.873 572.27 128.549 572.028 128.285C571.786 128.017 571.492 127.812 571.148 127.669C570.803 127.526 570.418 127.454 569.993 127.454C569.571 127.454 569.188 127.526 568.843 127.669C568.498 127.812 568.203 128.017 567.958 128.285C567.716 128.549 567.529 128.873 567.397 129.258C567.265 129.643 567.199 130.078 567.199 130.562C567.199 131.046 567.265 131.48 567.397 131.865C567.529 132.247 567.716 132.571 567.958 132.839C568.203 133.103 568.498 133.306 568.843 133.449C569.188 133.589 569.571 133.658 569.993 133.658C570.418 133.658 570.803 133.589 571.148 133.449C571.492 133.306 571.786 133.103 572.028 132.839C572.27 132.571 572.457 132.247 572.589 131.865C572.721 131.48 572.787 131.046 572.787 130.562ZM580.383 127.515H577.831V134.5H576.769V127.515H574.212V126.618H580.383V127.515Z" fill="white"/>
<path d="M567.79 294.872C567.849 294.872 567.9 294.896 567.944 294.943L568.368 295.4C568.045 295.774 567.653 296.065 567.191 296.274C566.733 296.483 566.177 296.588 565.524 296.588C564.96 296.588 564.446 296.491 563.984 296.296C563.522 296.098 563.128 295.823 562.802 295.471C562.476 295.116 562.223 294.69 562.043 294.195C561.863 293.7 561.773 293.156 561.773 292.562C561.773 291.968 561.867 291.423 562.054 290.928C562.241 290.433 562.503 290.008 562.84 289.652C563.181 289.297 563.588 289.022 564.061 288.827C564.534 288.629 565.057 288.53 565.629 288.53C566.19 288.53 566.685 288.62 567.114 288.8C567.543 288.98 567.921 289.223 568.247 289.531L567.895 290.021C567.873 290.058 567.844 290.089 567.807 290.114C567.774 290.136 567.728 290.147 567.669 290.147C567.603 290.147 567.523 290.113 567.427 290.043C567.332 289.97 567.207 289.889 567.053 289.801C566.899 289.713 566.707 289.634 566.476 289.564C566.245 289.491 565.961 289.454 565.623 289.454C565.216 289.454 564.844 289.526 564.507 289.669C564.17 289.808 563.878 290.012 563.632 290.279C563.39 290.547 563.202 290.873 563.066 291.258C562.93 291.643 562.862 292.078 562.862 292.562C562.862 293.053 562.932 293.491 563.071 293.876C563.214 294.261 563.407 294.588 563.649 294.855C563.895 295.119 564.182 295.321 564.512 295.46C564.846 295.6 565.205 295.669 565.59 295.669C565.825 295.669 566.036 295.657 566.223 295.631C566.414 295.602 566.588 295.558 566.745 295.499C566.907 295.44 567.055 295.367 567.191 295.279C567.33 295.187 567.468 295.079 567.603 294.954C567.666 294.899 567.728 294.872 567.79 294.872ZM571.615 290.84C572.022 290.84 572.389 290.908 572.715 291.044C573.041 291.18 573.32 291.372 573.551 291.621C573.782 291.871 573.958 292.173 574.079 292.529C574.204 292.881 574.266 293.275 574.266 293.711C574.266 294.151 574.204 294.547 574.079 294.899C573.958 295.251 573.782 295.552 573.551 295.801C573.32 296.051 573.041 296.243 572.715 296.379C572.389 296.511 572.022 296.577 571.615 296.577C571.204 296.577 570.834 296.511 570.504 296.379C570.178 296.243 569.899 296.051 569.668 295.801C569.437 295.552 569.259 295.251 569.135 294.899C569.014 294.547 568.953 294.151 568.953 293.711C568.953 293.275 569.014 292.881 569.135 292.529C569.259 292.173 569.437 291.871 569.668 291.621C569.899 291.372 570.178 291.18 570.504 291.044C570.834 290.908 571.204 290.84 571.615 290.84ZM571.615 295.812C572.165 295.812 572.576 295.629 572.847 295.262C573.118 294.892 573.254 294.377 573.254 293.717C573.254 293.053 573.118 292.536 572.847 292.166C572.576 291.796 572.165 291.61 571.615 291.61C571.336 291.61 571.093 291.658 570.884 291.753C570.678 291.849 570.506 291.986 570.367 292.166C570.231 292.346 570.128 292.567 570.059 292.831C569.993 293.092 569.96 293.387 569.96 293.717C569.96 294.377 570.095 294.892 570.367 295.262C570.642 295.629 571.058 295.812 571.615 295.812ZM576.52 288.398V296.5H575.541V288.398H576.52ZM581.737 292.254C581.554 292.008 581.356 291.838 581.143 291.742C580.931 291.643 580.692 291.594 580.428 291.594C579.911 291.594 579.514 291.779 579.235 292.149C578.956 292.52 578.817 293.048 578.817 293.733C578.817 294.096 578.848 294.408 578.91 294.668C578.973 294.925 579.064 295.138 579.185 295.306C579.306 295.471 579.455 295.592 579.631 295.669C579.807 295.746 580.007 295.785 580.23 295.785C580.553 295.785 580.834 295.712 581.072 295.565C581.314 295.418 581.536 295.211 581.737 294.943V292.254ZM582.716 288.398V296.5H582.133C581.994 296.5 581.906 296.432 581.869 296.296L581.781 295.62C581.543 295.906 581.272 296.137 580.967 296.313C580.663 296.489 580.311 296.577 579.911 296.577C579.592 296.577 579.303 296.516 579.042 296.395C578.782 296.271 578.56 296.089 578.377 295.851C578.194 295.613 578.052 295.316 577.953 294.96C577.854 294.604 577.805 294.195 577.805 293.733C577.805 293.323 577.86 292.941 577.97 292.589C578.08 292.234 578.238 291.926 578.443 291.665C578.648 291.405 578.899 291.202 579.196 291.055C579.497 290.905 579.834 290.829 580.208 290.829C580.549 290.829 580.841 290.888 581.083 291.005C581.329 291.119 581.547 291.279 581.737 291.484V288.398H582.716Z" fill="white"/>
<defs>
<linearGradient id="paint0_linear_18_158" x1="334.369" y1="110.5" x2="334.369" y2="232.5" gradientUnits="userSpaceOnUse">
<stop stop-color="#C44C4C"/>
<stop offset="0.716346" stop-color="#4130BD" stop-opacity="0.803846"/>
<stop offset="1" stop-color="#6241A3" stop-opacity="0.7"/>
</linearGradient>
<linearGradient id="paint1_linear_18_158" x1="333.869" y1="2.5" x2="333.869" y2="295.755" gradientUnits="userSpaceOnUse">
<stop stop-color="#F30000"/>
<stop offset="1" stop-color="#999999" stop-opacity="0"/>
</linearGradient>
<linearGradient id="paint2_linear_18_158" x1="158.869" y1="186" x2="232.869" y2="358" gradientUnits="userSpaceOnUse">
<stop stop-color="#7824ED"/>
<stop offset="1" stop-color="#7824ED" stop-opacity="0"/>
</linearGradient>
<linearGradient id="paint3_linear_18_158" x1="333.869" y1="12.5" x2="333.869" y2="344.817" gradientUnits="userSpaceOnUse">
<stop stop-color="white"/>
<stop offset="1" stop-color="#999999"/>
</linearGradient>
<linearGradient id="paint4_linear_18_158" x1="60.6988" y1="205.518" x2="126.42" y2="206.665" gradientUnits="userSpaceOnUse">
<stop stop-color="#C44C4C"/>
<stop offset="0.716346" stop-color="#4130BD" stop-opacity="0.803846"/>
<stop offset="1" stop-color="#6241A3" stop-opacity="0.7"/>
</linearGradient>
<linearGradient id="paint5_linear_18_158" x1="2.51466" y1="204.772" x2="160.491" y2="207.529" gradientUnits="userSpaceOnUse">
<stop stop-color="#F30000"/>
<stop offset="1" stop-color="#999999" stop-opacity="0"/>
</linearGradient>
<linearGradient id="paint6_linear_18_158" x1="99.7201" y1="300.769" x2="193.072" y2="262.523" gradientUnits="userSpaceOnUse">
<stop stop-color="#7824ED"/>
<stop offset="1" stop-color="#7824ED" stop-opacity="0"/>
</linearGradient>
<linearGradient id="paint7_linear_18_158" x1="8.15764" y1="204.818" x2="186.563" y2="207.932" gradientUnits="userSpaceOnUse">
<stop stop-color="white"/>
<stop offset="1" stop-color="#999999"/>
</linearGradient>
<linearGradient id="paint8_linear_18_158" x1="604.306" y1="207.518" x2="538.585" y2="208.665" gradientUnits="userSpaceOnUse">
<stop stop-color="#C44C4C"/>
<stop offset="0.716346" stop-color="#4130BD" stop-opacity="0.803846"/>
<stop offset="1" stop-color="#6241A3" stop-opacity="0.7"/>
</linearGradient>
<linearGradient id="paint9_linear_18_158" x1="662.49" y1="206.772" x2="504.514" y2="209.529" gradientUnits="userSpaceOnUse">
<stop stop-color="#F30000"/>
<stop offset="1" stop-color="#999999" stop-opacity="0"/>
</linearGradient>
<linearGradient id="paint10_linear_18_158" x1="565.285" y1="302.769" x2="471.933" y2="264.523" gradientUnits="userSpaceOnUse">
<stop stop-color="#7824ED"/>
<stop offset="1" stop-color="#7824ED" stop-opacity="0"/>
</linearGradient>
</defs>
</svg>
