<svg width="222" height="30" viewBox="0 0 222 30" fill="none" xmlns="http://www.w3.org/2000/svg">
<path d="M10.5256 20.5455C10.5256 21.696 10.3178 22.6903 9.90234 23.5284C9.48686 24.3665 8.9169 25.0128 8.19247 25.4673C7.46804 25.9219 6.64063 26.1491 5.71023 26.1491C4.77983 26.1491 3.95241 25.9219 3.22798 25.4673C2.50355 25.0128 1.93359 24.3665 1.51811 23.5284C1.10263 22.6903 0.894886 21.696 0.894886 20.5455C0.894886 19.3949 1.10263 18.4006 1.51811 17.5625C1.93359 16.7244 2.50355 16.0781 3.22798 15.6236C3.95241 15.169 4.77983 14.9418 5.71023 14.9418C6.64063 14.9418 7.46804 15.169 8.19247 15.6236C8.9169 16.0781 9.48686 16.7244 9.90234 17.5625C10.3178 18.4006 10.5256 19.3949 10.5256 20.5455ZM9.24716 20.5455C9.24716 19.6009 9.08913 18.8036 8.77308 18.1538C8.46058 17.5039 8.03622 17.0121 7.5 16.6783C6.96733 16.3445 6.37074 16.1776 5.71023 16.1776C5.04972 16.1776 4.45135 16.3445 3.91513 16.6783C3.38246 17.0121 2.9581 17.5039 2.64205 18.1538C2.32955 18.8036 2.1733 19.6009 2.1733 20.5455C2.1733 21.4901 2.32955 22.2873 2.64205 22.9371C2.9581 23.587 3.38246 24.0788 3.91513 24.4126C4.45135 24.7464 5.04972 24.9134 5.71023 24.9134C6.37074 24.9134 6.96733 24.7464 7.5 24.4126C8.03622 24.0788 8.46058 23.587 8.77308 22.9371C9.08913 22.2873 9.24716 21.4901 9.24716 20.5455ZM16.1133 26H12.7468V15.0909H16.2624C17.3207 15.0909 18.2262 15.3093 18.979 15.7461C19.7319 16.1793 20.3089 16.8026 20.7102 17.6158C21.1115 18.4254 21.3121 19.3949 21.3121 20.5241C21.3121 21.6605 21.1097 22.6388 20.7049 23.4592C20.3001 24.2759 19.7106 24.9045 18.9364 25.3448C18.1623 25.7816 17.2212 26 16.1133 26ZM14.0678 24.8281H16.0281C16.93 24.8281 17.6776 24.6541 18.2706 24.3061C18.8636 23.9581 19.3058 23.4627 19.5969 22.82C19.8881 22.1772 20.0337 21.4119 20.0337 20.5241C20.0337 19.6435 19.8899 18.8853 19.6023 18.2496C19.3146 17.6104 18.8849 17.1204 18.3132 16.7795C17.7415 16.435 17.0295 16.2628 16.1772 16.2628H14.0678V24.8281ZM32.7326 20.5455C32.7326 21.696 32.5249 22.6903 32.1094 23.5284C31.6939 24.3665 31.1239 25.0128 30.3995 25.4673C29.6751 25.9219 28.8477 26.1491 27.9173 26.1491C26.9869 26.1491 26.1594 25.9219 25.435 25.4673C24.7106 25.0128 24.1406 24.3665 23.7251 23.5284C23.3097 22.6903 23.1019 21.696 23.1019 20.5455C23.1019 19.3949 23.3097 18.4006 23.7251 17.5625C24.1406 16.7244 24.7106 16.0781 25.435 15.6236C26.1594 15.169 26.9869 14.9418 27.9173 14.9418C28.8477 14.9418 29.6751 15.169 30.3995 15.6236C31.1239 16.0781 31.6939 16.7244 32.1094 17.5625C32.5249 18.4006 32.7326 19.3949 32.7326 20.5455ZM31.4542 20.5455C31.4542 19.6009 31.2962 18.8036 30.9801 18.1538C30.6676 17.5039 30.2433 17.0121 29.707 16.6783C29.1744 16.3445 28.5778 16.1776 27.9173 16.1776C27.2567 16.1776 26.6584 16.3445 26.1222 16.6783C25.5895 17.0121 25.1651 17.5039 24.8491 18.1538C24.5366 18.8036 24.3803 19.6009 24.3803 20.5455C24.3803 21.4901 24.5366 22.2873 24.8491 22.9371C25.1651 23.587 25.5895 24.0788 26.1222 24.4126C26.6584 24.7464 27.2567 24.9134 27.9173 24.9134C28.5778 24.9134 29.1744 24.7464 29.707 24.4126C30.2433 24.0788 30.6676 23.587 30.9801 22.9371C31.2962 22.2873 31.4542 21.4901 31.4542 20.5455ZM35.6996 24.6044C35.4368 24.6044 35.2113 24.5103 35.0231 24.3221C34.8349 24.1339 34.7408 23.9084 34.7408 23.6456C34.7408 23.3828 34.8349 23.1573 35.0231 22.9691C35.2113 22.7809 35.4368 22.6868 35.6996 22.6868C35.9624 22.6868 36.1879 22.7809 36.3761 22.9691C36.5643 23.1573 36.6584 23.3828 36.6584 23.6456C36.6584 23.8196 36.614 23.9794 36.5252 24.125C36.44 24.2706 36.3246 24.3878 36.179 24.4766C36.0369 24.5618 35.8771 24.6044 35.6996 24.6044ZM35.6996 19.0859C35.4368 19.0859 35.2113 18.9918 35.0231 18.8036C34.8349 18.6154 34.7408 18.3899 34.7408 18.1271C34.7408 17.8643 34.8349 17.6388 35.0231 17.4506C35.2113 17.2624 35.4368 17.1683 35.6996 17.1683C35.9624 17.1683 36.1879 17.2624 36.3761 17.4506C36.5643 17.6388 36.6584 17.8643 36.6584 18.1271C36.6584 18.3011 36.614 18.4609 36.5252 18.6065C36.44 18.7521 36.3246 18.8693 36.179 18.9581C36.0369 19.0433 35.8771 19.0859 35.6996 19.0859Z" fill="white"/>
<path d="M180.368 24V6.72H182.336V14.376H187.904L194.336 6.72H196.832V6.744L189.608 15.36L196.856 23.976V24H194.336L187.904 16.344H182.336V24H180.368ZM199.421 24V10.08H217.805C218.349 10.08 218.837 10.216 219.269 10.488C219.717 10.744 220.069 11.096 220.325 11.544C220.581 11.976 220.709 12.456 220.709 12.984V24H218.765V12.984C218.765 12.728 218.669 12.512 218.477 12.336C218.285 12.144 218.061 12.048 217.805 12.048H212.021C211.765 12.048 211.541 12.144 211.349 12.336C211.173 12.512 211.085 12.728 211.085 12.984V24H209.093V12.984C209.093 12.728 208.997 12.512 208.805 12.336C208.629 12.144 208.413 12.048 208.157 12.048H202.349C202.093 12.048 201.869 12.144 201.677 12.336C201.501 12.512 201.413 12.728 201.413 12.984V24H199.421Z" fill="white"/>
</svg>
