<svg width="222" height="30" viewBox="0 0 222 30" fill="none" xmlns="http://www.w3.org/2000/svg">
<path d="M19.321 26V15.0909H23.0071C23.8594 15.0909 24.5589 15.2365 25.1058 15.5277C25.6527 15.8153 26.0575 16.2113 26.3203 16.7156C26.5831 17.2198 26.7145 17.7933 26.7145 18.4361C26.7145 19.0788 26.5831 19.6488 26.3203 20.146C26.0575 20.6431 25.6545 21.0337 25.1112 21.3178C24.5678 21.5984 23.8736 21.7386 23.0284 21.7386H20.0455V20.5455H22.9858C23.5682 20.5455 24.0369 20.4602 24.392 20.2898C24.7507 20.1193 25.0099 19.8778 25.1697 19.5653C25.3331 19.2493 25.4148 18.8729 25.4148 18.4361C25.4148 17.9993 25.3331 17.6175 25.1697 17.2908C25.0064 16.9641 24.7454 16.712 24.3867 16.5344C24.0281 16.3533 23.554 16.2628 22.9645 16.2628H20.642V26H19.321ZM24.456 21.0994L27.1406 26H25.6065L22.9645 21.0994H24.456ZM29.3632 26H27.9782L31.9839 15.0909H33.3476L37.3532 26H35.9683L32.7084 16.8168H32.6231L29.3632 26ZM29.8746 21.7386H35.4569V22.9105H29.8746V21.7386ZM47.703 15.0909V26H46.4246L40.48 17.4347H40.3735V26H39.0525V15.0909H40.3309L46.2968 23.6776H46.4033V15.0909H47.703ZM57.8038 18.5C57.6866 18.1413 57.5321 17.82 57.3404 17.5359C57.1522 17.2482 56.9267 17.0032 56.6639 16.8008C56.4047 16.5984 56.1099 16.4439 55.7797 16.3374C55.4494 16.2308 55.0872 16.1776 54.693 16.1776C54.0467 16.1776 53.459 16.3445 52.9299 16.6783C52.4007 17.0121 51.9799 17.5039 51.6674 18.1538C51.3549 18.8036 51.1987 19.6009 51.1987 20.5455C51.1987 21.4901 51.3567 22.2873 51.6728 22.9371C51.9888 23.587 52.4167 24.0788 52.9565 24.4126C53.4963 24.7464 54.1035 24.9134 54.7782 24.9134C55.4032 24.9134 55.9537 24.7802 56.4295 24.5138C56.9089 24.244 57.2818 23.864 57.5481 23.3739C57.818 22.8803 57.9529 22.2997 57.9529 21.6321L58.3578 21.7173H55.0765V20.5455H59.2314V21.7173C59.2314 22.6158 59.0396 23.397 58.6561 24.0611C58.2761 24.7251 57.7505 25.2401 57.0794 25.6058C56.4118 25.968 55.6447 26.1491 54.7782 26.1491C53.8123 26.1491 52.9636 25.9219 52.2321 25.4673C51.5041 25.0128 50.9359 24.3665 50.5275 23.5284C50.1227 22.6903 49.9203 21.696 49.9203 20.5455C49.9203 19.6825 50.0357 18.9066 50.2665 18.2177C50.5009 17.5252 50.8311 16.9357 51.2573 16.4492C51.6834 15.9627 52.1877 15.5898 52.7701 15.3306C53.3525 15.0714 53.9934 14.9418 54.693 14.9418C55.2683 14.9418 55.8045 15.0288 56.3017 15.2028C56.8024 15.3732 57.248 15.6165 57.6387 15.9325C58.0328 16.245 58.3613 16.6197 58.6241 17.0565C58.8869 17.4897 59.068 17.9709 59.1674 18.5H57.8038ZM61.4939 26V15.0909H68.0777V16.2628H62.8149V19.9489H67.7368V21.1207H62.8149V24.8281H68.1629V26H61.4939ZM71.2045 24.6044C70.9417 24.6044 70.7162 24.5103 70.528 24.3221C70.3398 24.1339 70.2456 23.9084 70.2456 23.6456C70.2456 23.3828 70.3398 23.1573 70.528 22.9691C70.7162 22.7809 70.9417 22.6868 71.2045 22.6868C71.4672 22.6868 71.6927 22.7809 71.8809 22.9691C72.0692 23.1573 72.1633 23.3828 72.1633 23.6456C72.1633 23.8196 72.1189 23.9794 72.0301 24.125C71.9449 24.2706 71.8295 24.3878 71.6839 24.4766C71.5418 24.5618 71.382 24.6044 71.2045 24.6044ZM71.2045 19.0859C70.9417 19.0859 70.7162 18.9918 70.528 18.8036C70.3398 18.6154 70.2456 18.3899 70.2456 18.1271C70.2456 17.8643 70.3398 17.6388 70.528 17.4506C70.7162 17.2624 70.9417 17.1683 71.2045 17.1683C71.4672 17.1683 71.6927 17.2624 71.8809 17.4506C72.0692 17.6388 72.1633 17.8643 72.1633 18.1271C72.1633 18.3011 72.1189 18.4609 72.0301 18.6065C71.9449 18.7521 71.8295 18.8693 71.6839 18.9581C71.5418 19.0433 71.382 19.0859 71.2045 19.0859Z" fill="white"/>
<path d="M160.368 24V6.72H162.336V14.376H167.904L174.336 6.72H176.832V6.744L169.608 15.36L176.856 23.976V24H174.336L167.904 16.344H162.336V24H160.368ZM179.421 24V10.08H197.805C198.349 10.08 198.837 10.216 199.269 10.488C199.717 10.744 200.069 11.096 200.325 11.544C200.581 11.976 200.709 12.456 200.709 12.984V24H198.765V12.984C198.765 12.728 198.669 12.512 198.477 12.336C198.285 12.144 198.061 12.048 197.805 12.048H192.021C191.765 12.048 191.541 12.144 191.349 12.336C191.173 12.512 191.085 12.728 191.085 12.984V24H189.093V12.984C189.093 12.728 188.997 12.512 188.805 12.336C188.629 12.144 188.413 12.048 188.157 12.048H182.349C182.093 12.048 181.869 12.144 181.677 12.336C181.501 12.512 181.413 12.728 181.413 12.984V24H179.421Z" fill="white"/>
</svg>
